<mxfile host="app.diagrams.net" modified="2023-09-20T16:51:36.619Z" agent="Mozilla/5.0 (Windows NT 10.0; Win64; x64) AppleWebKit/537.36 (KHTML, like Gecko) Chrome/116.0.0.0 Safari/537.36" etag="lDmGBvoWS2IWCXZ0jy2H" version="21.7.5" type="github">
  <diagram name="Page-1" id="rhOAYaMgGxGdnEfZXStA">
    <mxGraphModel dx="1434" dy="758" grid="1" gridSize="10" guides="1" tooltips="1" connect="1" arrows="1" fold="1" page="1" pageScale="1" pageWidth="850" pageHeight="1100" math="0" shadow="0">
      <root>
        <mxCell id="0" />
        <mxCell id="1" parent="0" />
        <mxCell id="1r1B4AeNuYFUQeWRYzfi-3" value="" style="rounded=0;whiteSpace=wrap;html=1;fillColor=#60a917;strokeColor=#2D7600;fontColor=#ffffff;" vertex="1" parent="1">
          <mxGeometry x="40" y="200" width="770" height="270" as="geometry" />
        </mxCell>
        <mxCell id="1r1B4AeNuYFUQeWRYzfi-4" value="&lt;h1&gt;&lt;font face=&quot;Verdana&quot;&gt;Java 8&lt;/font&gt;&lt;/h1&gt;" style="rounded=0;whiteSpace=wrap;html=1;fillColor=#d5e8d4;strokeColor=#82b366;" vertex="1" parent="1">
          <mxGeometry x="270" y="260" width="290" height="60" as="geometry" />
        </mxCell>
        <mxCell id="1r1B4AeNuYFUQeWRYzfi-5" value="&lt;h1&gt;Interview Questions&lt;/h1&gt;" style="rounded=0;whiteSpace=wrap;html=1;fillColor=#fff2cc;strokeColor=#d6b656;" vertex="1" parent="1">
          <mxGeometry x="260" y="360" width="310" height="60" as="geometry" />
        </mxCell>
        <mxCell id="1r1B4AeNuYFUQeWRYzfi-6" value="" style="html=1;verticalLabelPosition=bottom;align=center;labelBackgroundColor=#ffffff;verticalAlign=top;strokeWidth=2;strokeColor=#0080F0;shadow=0;dashed=0;shape=mxgraph.ios7.icons.cup;" vertex="1" parent="1">
          <mxGeometry x="90" y="270" width="100" height="120" as="geometry" />
        </mxCell>
      </root>
    </mxGraphModel>
  </diagram>
</mxfile>
